<svg width="40" height="21" viewBox="0 0 40 21" fill="none" xmlns="http://www.w3.org/2000/svg">
<rect x="0.349756" y="0.571191" width="19.3" height="19.3" rx="9.65" stroke="white" stroke-width="0.7"/>
<path d="M4.52832 9.91602V10.1188C4.52832 13.1406 6.97792 15.5902 9.99966 15.5902C13.0214 15.5902 15.471 13.1406 15.471 10.1188V9.91602" stroke="white" stroke-width="0.7"/>
<rect x="5.58252" y="6.86206" width="2.18466" height="2.18466" rx="1.09233" fill="white"/>
<rect x="11.9158" y="6.86206" width="2.18466" height="2.18466" rx="1.09233" fill="white"/>
<path d="M28.8965 0.924607C29.3492 0.045966 30.6054 0.0459638 31.0581 0.924604L32.1274 3.00014C32.3994 3.5281 33.0131 3.78228 33.5787 3.60129L35.8025 2.88979C36.7439 2.58858 37.6322 3.47689 37.331 4.41827L36.6195 6.64201C36.4385 7.20767 36.6927 7.82131 37.2206 8.09332L39.2961 9.16263C40.1748 9.61531 40.1748 10.8716 39.2962 11.3242L37.2206 12.3936C36.6927 12.6656 36.4385 13.2792 36.6195 13.8449L37.331 16.0686C37.6322 17.01 36.7439 17.8983 35.8025 17.5971L33.5787 16.8856C33.0131 16.7046 32.3994 16.9588 32.1274 17.4867L31.0581 19.5623C30.6054 20.4409 29.3492 20.4409 28.8965 19.5623L27.8272 17.4867C27.5552 16.9588 26.9416 16.7046 26.3759 16.8856L24.1522 17.5971C23.2108 17.8983 22.3225 17.01 22.6237 16.0686L23.3352 13.8449C23.5162 13.2792 23.262 12.6656 22.734 12.3936L20.6585 11.3242C19.7799 10.8716 19.7799 9.61531 20.6585 9.16263L22.734 8.09332C23.262 7.82131 23.5162 7.20767 23.3352 6.64201L22.6237 4.41827C22.3225 3.47689 23.2108 2.58858 24.1522 2.88978L26.3759 3.60129C26.9416 3.78228 27.5552 3.5281 27.8272 3.00014L28.8965 0.924607Z" fill="white"/>
</svg>
