<svg width="60" height="31" viewBox="0 0 60 31" fill="none" xmlns="http://www.w3.org/2000/svg">
<path d="M29.5996 15.3501C29.5996 23.6344 23.0518 30.3501 14.9746 30.3501M29.5996 15.3501C29.5996 7.06583 23.0518 0.350098 14.9746 0.350098M29.5996 15.3501H0.349609M14.9746 30.3501C6.89744 30.3501 0.349609 23.6344 0.349609 15.3501M14.9746 30.3501C19.8346 30.3501 23.7744 23.6344 23.7744 15.3501C23.7744 7.06583 19.8346 0.350098 14.9746 0.350098M14.9746 30.3501C10.1146 30.3501 6.17482 23.6344 6.17482 15.3501C6.17482 7.06583 10.1146 0.350098 14.9746 0.350098M14.9746 30.3501C16.6174 30.3501 17.9492 23.6344 17.9492 15.3501C17.9492 7.06583 16.6174 0.350098 14.9746 0.350098M14.9746 30.3501C13.3318 30.3501 12 23.6344 12 15.3501C12 7.06583 13.3318 0.350098 14.9746 0.350098M0.349609 15.3501C0.349609 7.06583 6.89744 0.350098 14.9746 0.350098M4.06783 5.43484H25.9434M4.00586 25.2654H25.9434" stroke="#F3F3ED" stroke-width="0.7"/>
<rect x="29.9496" y="0.66665" width="29.3" height="29.3" rx="14.65" fill="#F3F3ED"/>
<rect x="29.9496" y="0.66665" width="29.3" height="29.3" rx="14.65" stroke="#F3F3ED" stroke-width="0.7"/>
<rect x="42.9219" y="13.6387" width="3.35597" height="3.35597" rx="1.67799" fill="black"/>
</svg>
