<svg width="58" height="30" viewBox="0 0 58 30" fill="none" xmlns="http://www.w3.org/2000/svg">
<rect x="0.35" y="0.445703" width="28.3" height="28.3" rx="14.15" stroke="white" stroke-width="0.7"/>
<path d="M6.56641 14.1533V14.4474C6.56641 18.8289 10.1183 22.3809 14.4998 22.3809C18.8814 22.3809 22.4333 18.8289 22.4333 14.4474V14.1533" stroke="white" stroke-width="0.7"/>
<rect x="8.09497" y="9.7251" width="3.16775" height="3.16775" rx="1.58388" fill="white"/>
<rect x="17.2783" y="9.7251" width="3.16775" height="3.16775" rx="1.58388" fill="white"/>
<path d="M57 14.5957C57 22.4633 50.732 28.8413 43 28.8413C35.268 28.8413 29 22.4633 29 14.5957C29 6.72808 35.268 0.350098 43 0.350098C50.732 0.350098 57 6.72808 57 14.5957Z" fill="white"/>
<path d="M51.4237 14.5957C51.4237 22.4633 47.6523 28.8413 43 28.8413C38.3477 28.8413 34.5763 22.4633 34.5763 14.5957C34.5763 6.72808 38.3477 0.350098 43 0.350098C47.6523 0.350098 51.4237 6.72808 51.4237 14.5957Z" fill="white"/>
<path d="M45.8475 14.5957C45.8475 22.4633 44.5726 28.8413 43 28.8413C41.4274 28.8413 40.1525 22.4633 40.1525 14.5957C40.1525 6.72808 41.4274 0.350098 43 0.350098C44.5726 0.350098 45.8475 6.72808 45.8475 14.5957Z" fill="white"/>
<path d="M57 14.5957C57 22.4633 50.732 28.8413 43 28.8413M57 14.5957C57 6.72808 50.732 0.350098 43 0.350098M57 14.5957H29M43 28.8413C35.268 28.8413 29 22.4633 29 14.5957M43 28.8413C47.6523 28.8413 51.4237 22.4633 51.4237 14.5957C51.4237 6.72808 47.6523 0.350098 43 0.350098M43 28.8413C38.3477 28.8413 34.5763 22.4633 34.5763 14.5957C34.5763 6.72808 38.3477 0.350098 43 0.350098M43 28.8413C44.5726 28.8413 45.8475 22.4633 45.8475 14.5957C45.8475 6.72808 44.5726 0.350098 43 0.350098M43 28.8413C41.4274 28.8413 40.1525 22.4633 40.1525 14.5957C40.1525 6.72808 41.4274 0.350098 43 0.350098M29 14.5957C29 6.72808 35.268 0.350098 43 0.350098M32.5593 5.17912H53.5M32.5 24.0123H53.5" stroke="black" stroke-width="0.7"/>
</svg>
