<svg width="40" height="21" viewBox="0 0 40 21" fill="none" xmlns="http://www.w3.org/2000/svg">
<rect y="0.350098" width="19.5" height="20" rx="9.75" fill="#F5F3ED"/>
<path d="M39 10.3501C39 15.8729 34.6348 20.3501 29.25 20.3501M39 10.3501C39 4.82725 34.6348 0.350098 29.25 0.350098M39 10.3501H19.5M29.25 20.3501C23.8652 20.3501 19.5 15.8729 19.5 10.3501M29.25 20.3501C32.49 20.3501 35.1165 15.8729 35.1165 10.3501C35.1165 4.82725 32.49 0.350098 29.25 0.350098M29.25 20.3501C26.01 20.3501 23.3835 15.8729 23.3835 10.3501C23.3835 4.82725 26.01 0.350098 29.25 0.350098M29.25 20.3501C30.3452 20.3501 31.2331 15.8729 31.2331 10.3501C31.2331 4.82725 30.3452 0.350098 29.25 0.350098M29.25 20.3501C28.1548 20.3501 27.2669 15.8729 27.2669 10.3501C27.2669 4.82725 28.1548 0.350098 29.25 0.350098M19.5 10.3501C19.5 4.82725 23.8652 0.350098 29.25 0.350098M21.9788 3.73993H36.5625M21.9375 16.9603H36.5625" stroke="#F5F3ED" stroke-width="0.7"/>
</svg>
