<svg width="106" height="14" viewBox="0 0 106 14" fill="none" xmlns="http://www.w3.org/2000/svg">
  <path d="M24.5585 14C22.6021 14 21.1227 13.3899 19.7621 12.0225L19.6585 11.9189L20.5152 10.8624L20.6421 10.9856C21.8639 12.1718 23.0716 12.7004 24.5585 12.7004C26.5937 12.7004 28.0709 11.5246 28.0709 9.90364C28.0709 8.42018 26.4964 8.02721 24.6734 7.57224C22.5151 7.03324 20.0688 6.42249 20.0688 3.68511C20.0688 1.51536 21.8922 0 24.5027 0C26.7044 0 27.9661 0.767122 29.1833 1.91814L29.291 2.01978L28.4172 3.1415L28.2877 3.01376C27.1883 1.92855 26.2139 1.30025 24.4843 1.30025C23.0617 1.30025 21.4003 1.92461 21.4003 3.68504C21.4003 5.22255 23.0209 5.626 24.8971 6.09332C27.044 6.62845 29.477 7.23459 29.477 9.88528C29.477 12.2695 27.4086 14 24.5585 14Z" fill="#4F3E35"></path>
  <path d="M48.8525 14H48.7973C46.9389 13.985 45.2156 13.244 43.9451 11.913C42.6835 10.5919 41.9969 8.82817 42.0114 6.94721C42.0416 3.04119 45.0406 0 48.8492 0H48.9051C52.7299 0.0299667 55.7023 3.12782 55.6718 7.05279C55.6575 8.93315 54.9446 10.6858 53.6644 11.9886C52.3889 13.2869 50.682 14 48.8525 14ZM48.8486 1.3746C47.3578 1.3746 45.9871 1.94617 44.9842 2.98706C43.9854 4.02335 43.4289 5.43312 43.4172 6.95829C43.3922 10.1754 45.7097 12.6202 48.8077 12.6443C48.8229 12.645 48.8379 12.645 48.8532 12.645C51.9281 12.645 54.2596 10.2445 54.2843 7.04238C54.296 5.51988 53.7589 4.10097 52.7721 3.04766C51.773 1.98074 50.3958 1.38628 48.8944 1.3752C48.8791 1.37453 48.8638 1.3746 48.8486 1.3746Z" fill="#4F3E35"></path>
  <path d="M36.8332 13.8285H35.4537V1.77738H30.768V0.483606H41.5186V1.77738H36.8332V13.8285Z" fill="#4F3E35"></path>
  <path d="M68.6339 13.8285H66.9219L62.9117 8.52704H59.6846V13.8285H58.3165V0.389768H63.6074C65.9996 0.389768 67.8735 2.18931 67.8735 4.4868C67.8735 6.42709 66.4714 8.00699 64.5007 8.33876L68.6339 13.8285ZM59.6846 7.24567H63.5147C65.1913 7.24567 66.5046 6.03406 66.5046 4.48673C66.5046 2.91859 65.1913 1.69062 63.5147 1.69062H59.6846V7.24567Z" fill="#4F3E35"></path>
  <path d="M1.86935 13.8285H0.5V1.51015L1.86935 0.150568V13.8285Z" fill="#4F3E35"></path>
  <path d="M92.1475 13.8285H83.058V0.389768H92.1475V1.69002H84.426V6.3091H90.5444V7.60875H84.426V12.5283H92.1475V13.8285Z" fill="#4F3E35"></path>
  <path d="M79.9603 13.8285H70.9444V0.389768H79.9603V1.69002H72.3125V6.3091H78.4306V7.60875H72.3125V12.5283H79.9603V13.8285Z" fill="#4F3E35"></path>
  <path d="M13.193 13.8285H4.99296V12.7942L5.03675 12.7473C5.97685 11.739 6.82345 10.8565 7.57594 10.0724C10.5367 6.98698 12.0225 5.43833 12.0225 3.72161C12.0225 3.03532 11.7944 2.45327 11.3631 2.03807C10.9082 1.59945 10.2358 1.372 9.51901 1.39609C8.00492 1.4613 7.08755 1.99636 6.13482 3.37029L6.03194 3.51825L5.10872 2.71916L5.20057 2.59729C6.32436 1.10476 7.13174 0.185073 9.46877 0.0964408C10.5834 0.044316 11.6429 0.43929 12.3782 1.15555C13.0295 1.7904 13.3695 2.62593 13.3617 3.57298C13.3423 5.92587 11.4926 7.84468 8.13478 11.3277C7.76255 11.7135 7.37192 12.1189 6.96334 12.5458H14.4833L13.193 13.8285Z" fill="#4F3E35"></path>
  <path d="M104.212 13.8285H95.1598V12.9578L95.1896 12.9154L103.139 1.69002H95.1648V0.390435H105.125V1.26054L105.096 1.30292L97.1457 12.5472H105.5L104.212 13.8285Z" fill="#4F3E35"></path>
</svg>