<?xml version="1.0" encoding="utf-8"?>
<!-- Generator: Adobe Illustrator 28.0.0, SVG Export Plug-In . SVG Version: 6.00 Build 0)  -->
<svg version="1.1" id="Слой_1" xmlns="http://www.w3.org/2000/svg" xmlns:xlink="http://www.w3.org/1999/xlink" x="0px" y="0px"
	 viewBox="0 0 1000 166.6666718" enable-background="new 0 0 1000 166.6666718" xml:space="preserve">
<path fill="#000001" d="M825.0297241,162.9404755h-33.541626v-18.1595154h-0.6845703
	c-8.0594482,13.2619019-24.1547241,21.8857117-44.833313,21.8857117c-39.0952148,0-63.6726074-28.1589355-63.6726074-68.2083359
	c0-40.0495262,24.5773926-68.2081604,63.6726074-68.2081604c20.708374,0.0002384,36.8035889,8.6236897,44.833313,21.8854771
	h0.6845703V0h33.541626V162.9404755z M130.469635,30.2443447c20.7273865,0,36.8416748,8.6236897,44.881546,21.8854733h0.6797791
	V33.970417h33.575592v128.9700623h-33.575592V144.775589h-0.6797791
	c-8.0720215,13.2625122-24.1851044,21.8851318-44.881546,21.8851318
	c-39.0982056-0.0006104-63.7321396-28.1589355-63.7321396-68.2083359
	C66.7380981,58.4044075,91.3720245,30.2453575,130.469635,30.2443447z M582.5195923,30.2443447
	c43.4506836,0,72.8673096,28.6493473,72.8673096,68.2080383c0,39.560112-29.416626,68.2083359-72.8673096,68.2083359
	c-43.4499512,0-72.8701782-28.6160736-72.8701782-68.2083359C509.6499939,58.8613052,539.0701904,30.2448215,582.5195923,30.2443447
	z M920.9404907,30.2443447c20.708374,0.000536,36.8035889,8.6244068,44.833313,21.8854733h0.6785889V33.970417H1000v128.9700623
	h-33.5476074V144.775589h-0.6785889c-8.0654297,13.2619171-24.1607666,21.8845215-44.833313,21.8851318
	c-39.0952759,0-63.6785889-28.1583405-63.6785889-68.2083359C857.2619019,58.4036903,881.875,30.2443447,920.9404907,30.2443447z
	 M34.0634537,162.9404755H0V0h34.0634537V162.9404755z M426.7113037,30.2443447
	c33.3226013,0,53.1005859,20.4852352,53.1005859,50.7348175v81.9613113h-33.5517578V90.7797623
	c0-22.833931-9.2238464-32.6043472-31.9649048-32.6045227c-22.7422485,0-31.9363098,9.8027344-31.9363098,32.6045227v72.1607132
	h-33.5458069V90.7797623c0-22.8345261-9.1964417-32.6045227-31.9708557-32.6045227
	c-22.7738037,0.0001755-31.9648743,9.8033295-31.9648743,32.6045227v72.1607132H251.325592V33.970417h33.5517883V52.129818h0.674408
	c8.06427-13.2619629,24.1636963-21.8854733,44.8404846-21.8854733c22.5148621,0.0002975,37.9035645,9.9955959,45.9678345,24.2048206
	h0.4476318c9.1934509-13.9811859,24.1327515-24.2048206,49.8744202-24.2048206H426.7113037z M754.4880981,58.181015
	c-27.6130981,0-37.4821167,12.8047028-37.4821167,40.2773209s9.9047241,40.2773819,37.4821167,40.2773819
	c27.5773315,0,37.4821167-12.8047638,37.4821167-40.2773819S782.1011963,58.1812515,754.4880981,58.181015z M138.9624939,58.1752396
	c-27.6362991,0.0002403-37.5160675,12.8057098-37.5160675,40.2771454c0,27.4726105,9.9113083,40.2773819,37.5160675,40.2773819
	c27.6375122,0,37.5160675-12.8041687,37.5160675-40.2773819C176.4785614,70.9809494,166.6000061,58.1752396,138.9624939,58.1752396z
	 M582.5195923,58.1752396c-27.5784912,0.0002975-37.9344482,12.8057098-37.9351196,40.2771454
	c0,27.4726105,10.3560181,40.2773819,37.9351196,40.2773819c27.581604,0,37.9328003-12.8041687,37.9328003-40.2773819
	C620.4523926,70.9809494,610.1011963,58.1752396,582.5195923,58.1752396z M929.4226685,58.1752396
	c-27.6131592,0.0002403-37.4822388,12.8057098-37.4822388,40.2771454c0,27.4726105,9.8988647,40.2773819,37.4822388,40.2773819
	c27.6071167,0,37.4761353-12.8041687,37.4761353-40.2773819C966.8988037,70.9809494,957.0297852,58.1752396,929.4226685,58.1752396z
	"/>
</svg>
