<svg width="71" height="12" viewBox="0 0 71 12" fill="none" xmlns="http://www.w3.org/2000/svg">
<path d="M50.5177 1.38054C48.8746 1.38054 47.2696 1.52213 45.7029 1.84071L44.9768 1.98231C44.9004 1.98231 44.8622 2.0531 44.8622 2.1239V2.19469V4.17699V7.75222V8.0708C44.8622 8.1416 44.9004 8.17699 44.9768 8.17699H46.8875C46.9639 8.17699 47.0021 8.1416 47.0021 8.0708V3.36284C47.0021 3.29204 47.0403 3.25664 47.1168 3.22124C47.6135 3.15045 48.1485 3.07965 48.6835 3.04425C49.2567 3.00885 49.8681 2.97346 50.4031 2.97346C50.4413 2.97346 50.4795 2.97346 50.5177 2.97346C51.3966 2.97346 52.2373 3.04425 52.9634 3.11505C53.078 3.11505 53.1927 3.07965 53.2691 2.97346C53.2691 2.97346 53.4219 2.83186 53.6512 2.51328C53.8805 2.1593 53.9569 1.87611 53.9569 1.87611C53.9951 1.80531 53.9569 1.69912 53.8423 1.69912C52.8487 1.52213 51.4731 1.38054 50.5177 1.38054Z" fill="white"/>
<path d="M42.493 2.0177L41.7669 1.8761C40.2002 1.55752 38.557 1.41593 36.9521 1.41593C35.3089 1.41593 32.3283 1.8761 32.1754 1.8761L31.3729 1.9823C31.2965 1.9823 31.2583 2.0531 31.2583 2.12389V2.15929C31.2583 2.19469 31.2965 2.23009 31.3347 2.30088C31.4494 2.58407 31.7551 3.07965 31.9844 3.32743C32.0226 3.36283 32.099 3.39823 32.1754 3.39823H32.2136C32.3283 3.36283 32.4811 3.36283 32.5958 3.32743C32.7868 3.29203 33.0543 3.25664 33.3982 3.18584C33.4365 3.18584 33.5129 3.18584 33.5511 3.18584C34.0479 3.11504 34.5064 3.07964 34.5064 3.07964C35.2325 3.00885 36.0732 2.93805 36.9521 2.93805C38.0984 2.93805 39.3977 3.00885 40.5441 3.18584C40.5823 3.18584 40.6205 3.22124 40.6587 3.29203C40.6587 3.29203 40.6587 3.29203 40.6587 3.32743V4.35398C40.6587 4.42478 40.6205 4.46018 40.5441 4.46018C40.5441 4.46018 37.6399 4.38938 36.1114 4.38938C34.6211 4.38938 31.6786 4.53097 31.6786 4.53097C31.4876 4.53097 31.3347 4.67256 31.3347 4.84956V8C31.3347 8.0708 31.3729 8.10619 31.4494 8.14159L32.1372 8.21239C33.7039 8.53097 35.3471 8.67256 36.9521 8.67256C38.557 8.67256 40.2002 8.53097 41.7669 8.21239L42.493 8.07079C42.5694 8.07079 42.6076 8 42.6076 7.9292V2.12389C42.6076 2.08849 42.5694 2.0177 42.493 2.0177ZM40.6587 6.83186C40.6587 6.90265 40.6205 6.93805 40.5441 6.97345C39.4359 7.15044 38.0984 7.22124 36.9521 7.22124C35.8057 7.22124 34.5064 7.15044 33.36 6.97345C33.2836 6.97345 33.2454 6.90265 33.2454 6.83186V5.9115C33.2454 5.84071 33.2836 5.80531 33.36 5.80531C33.36 5.80531 36.1878 5.80531 36.7992 5.80531C37.3724 5.80531 40.5059 5.80531 40.5059 5.80531C40.5823 5.80531 40.6205 5.84071 40.6205 5.9115V6.83186H40.6587Z" fill="white"/>
<path d="M70.9618 4.70796C70.9618 4.53097 70.8472 4.46018 70.6943 4.42478C70.5033 4.38938 68.6308 4.28318 66.2234 4.31858C64.5038 4.31858 61.7525 4.35398 61.7525 4.35398C61.676 4.35398 61.6378 4.24779 61.6378 4.21239V3.29203C61.6378 3.22124 61.676 3.18584 61.7525 3.15044C62.8607 2.97345 64.1981 2.90265 65.3445 2.90265C67.4844 2.90265 69.5097 3.25664 69.8154 3.32743C69.8919 3.32743 69.9683 3.36283 70.0829 3.39823H70.1211C70.1976 3.39823 70.274 3.39823 70.3122 3.32743C70.5797 3.00885 70.9236 2.30088 71 2.15929C71 2.15929 71 2.15929 71 2.12389V2.08849C71 2.0531 70.9236 2.0177 70.8854 1.9823L70.0829 1.8761C69.9683 1.84071 66.9495 1.41593 65.3445 1.41593C63.7396 1.41593 62.0964 1.55752 60.5297 1.8761L59.8036 2.0177C59.7654 2.0177 59.7272 2.0531 59.689 2.08849C59.689 2.12389 59.689 2.12389 59.689 2.15929V5.41593C59.689 5.59292 59.8418 5.73451 59.9947 5.73451C59.9947 5.73451 61.5614 5.84071 64.2745 5.80531C66.4145 5.80531 68.9748 5.73451 68.9748 5.73451C69.0512 5.73451 69.0894 5.76991 69.0894 5.84071V6.47787V6.79646C69.0894 6.86725 69.0512 6.90265 68.9748 6.93805C67.8666 7.11504 66.4909 7.18584 65.3445 7.18584C63.8924 7.18584 62.3639 7.07964 60.95 6.76106L60.6443 6.69026C60.6061 6.69026 60.6061 6.69026 60.5679 6.69026C60.4914 6.69026 60.415 6.69026 60.3768 6.76106C60.1475 7.07964 59.7272 7.78761 59.689 7.9292C59.689 7.9292 59.689 7.9292 59.689 7.9646C59.689 8.0354 59.7272 8.07079 59.7654 8.07079C60.0329 8.14159 60.5297 8.24778 60.5297 8.24778C62.0964 8.56637 63.7396 8.70796 65.3445 8.70796C66.9495 8.70796 68.5926 8.56637 70.1594 8.24778L70.8854 8.10619C70.9618 8.10619 71 8.0354 71 7.9646V6.51327V4.70796H70.9618Z" fill="white"/>
<path d="M27.0166 0C26.9402 0 26.902 0.0353986 26.902 0.106195V8.0354C26.902 8.10619 26.9402 8.14159 27.0166 8.14159H28.9273C29.0037 8.14159 29.0419 8.10619 29.0419 8.0354V0.106195C29.0419 0.0353986 29.0037 0 28.9273 0H27.0166Z" fill="white"/>
<path d="M23.845 1.84071C22.2783 1.52213 20.6351 1.38054 19.0302 1.38054C17.387 1.38054 14.4064 1.84071 14.2535 1.84071L13.4511 1.94691C13.3746 1.94691 13.3364 2.0177 13.3364 2.0885V7.92921C13.3364 8 13.3746 8.0354 13.4511 8.0708L14.1771 8.21239C15.7439 8.53098 17.387 8.67257 18.992 8.67257C20.5969 8.67257 22.2401 8.49558 23.8068 8.21239L24.5329 8.0708C24.6093 8.0708 24.6475 8 24.6475 7.92921V2.1239C24.6475 2.0531 24.6093 2.0177 24.5329 1.98231L23.845 1.84071ZM22.5076 6.65487C22.5076 6.72567 22.4694 6.76107 22.3929 6.79646C21.2848 6.97345 20.1384 7.04425 18.992 7.04425C17.8456 7.04425 16.6992 6.97345 15.591 6.79646C15.5146 6.79646 15.4764 6.72567 15.4764 6.65487V3.39823C15.4764 3.32744 15.5146 3.29204 15.591 3.29204C16.5845 3.15045 18.0749 3.00885 18.992 3.00885C20.1384 3.00885 21.2848 3.07965 22.3929 3.25664C22.4694 3.25664 22.5076 3.32744 22.5076 3.39823V6.65487Z" fill="white"/>
<path d="M10.4704 1.84071C8.90366 1.52213 7.2605 1.38054 5.65554 1.38054C4.01238 1.38054 1.41389 1.76992 0.917115 1.80531C0.420344 1.87611 0.11464 1.94691 0.11464 1.94691C0.0382136 1.94691 0 2.0177 0 2.0885V9.9823C0 10.0531 0.0382136 10.0885 0.11464 10.0885H2.0253C2.10172 10.0885 2.13994 10.0531 2.13994 9.9823V8.56638C2.13994 8.49558 2.17815 8.46018 2.25457 8.46018C3.36276 8.60177 4.50915 8.70797 5.65554 8.70797C7.2605 8.70797 8.90366 8.56637 10.4704 8.24779L11.1964 8.1062C11.2729 8.1062 11.3111 8.0354 11.3111 7.96461V2.1239C11.3111 2.0531 11.2729 2.0177 11.1964 1.98231L10.4704 1.84071ZM2.25457 6.79646C2.17815 6.79646 2.13994 6.72567 2.13994 6.65487V3.39823C2.13994 3.32744 2.17815 3.29204 2.25457 3.25664C3.24812 3.11505 4.73843 2.97346 5.65554 2.97346C6.80194 2.97346 7.94833 3.04425 9.05651 3.22124C9.13294 3.22124 9.17115 3.29204 9.17115 3.36284V6.65487C9.17115 6.72567 9.13294 6.76107 9.05651 6.79646C7.94833 6.97345 6.80194 7.04425 5.65554 7.04425C4.50915 7.07965 3.36276 6.97345 2.25457 6.79646Z" fill="white"/>
<path d="M55.3327 1.62832C55.2562 1.62832 55.218 1.66372 55.218 1.73451V8.0708C55.218 8.14159 55.2562 8.17699 55.3327 8.17699H57.2433C57.3197 8.17699 57.358 8.14159 57.358 8.0708V1.73451C57.358 1.66372 57.3197 1.62832 57.2433 1.62832H55.3327Z" fill="white"/>
<path d="M55.4091 11.6106C55.5237 11.7522 55.753 11.823 55.9441 11.823C56.1351 11.823 56.3262 11.7168 56.3262 11.5398C56.3262 11.1504 55.4091 11.2566 55.4091 10.7611C55.4091 10.4779 55.6766 10.3363 55.9441 10.3363C56.1351 10.3363 56.3262 10.3717 56.4408 10.5133L56.3644 10.6195C56.2498 10.5133 56.0969 10.4779 55.9441 10.4779C55.753 10.4779 55.5619 10.5487 55.5619 10.7611C55.5619 11.1504 56.479 11.0442 56.479 11.5752C56.479 11.823 56.2498 12 55.9441 12C55.7148 12 55.4855 11.9292 55.3326 11.7876L55.4091 11.6106Z" fill="white"/>
<path d="M56.9376 9.6991H57.0905V9.91149H56.9376V9.6991ZM56.9376 10.3363H57.0905V11.8938H56.9376V10.3363Z" fill="white"/>
<path d="M57.6637 10.3363H57.8165V10.6195C57.8165 10.6903 57.8165 10.7611 57.8165 10.7611C57.893 10.6195 58.1223 10.3363 58.5426 10.3363C58.9629 10.3363 59.1158 10.5841 59.1158 10.938V11.9292H58.9629V10.9734C58.9629 10.6903 58.9247 10.4425 58.5426 10.4425C58.1605 10.4425 57.8165 10.7257 57.8165 11.1504V11.9292H57.6637V10.3363Z" fill="white"/>
<path d="M60.415 10.3009C60.6443 10.3009 60.8736 10.3717 61.0264 10.5133L60.95 10.6195C60.8354 10.5133 60.6443 10.4071 60.415 10.4071C60.0329 10.4071 59.689 10.6903 59.689 11.115C59.689 11.5398 60.0329 11.7876 60.415 11.7876C60.6061 11.7876 60.8354 11.7168 60.9882 11.5752L61.0647 11.6814C60.9118 11.823 60.6825 11.9292 60.415 11.9292C59.9565 11.9292 59.5361 11.6106 59.5361 11.115C59.5361 10.6195 59.9183 10.3009 60.415 10.3009Z" fill="white"/>
<path d="M62.1346 10.3009C62.5932 10.3009 62.8225 10.6195 62.8225 11.0088C62.8225 11.0442 62.8225 11.0796 62.8225 11.0796H61.485C61.485 11.5398 61.8289 11.7876 62.211 11.7876C62.4021 11.7876 62.5932 11.7168 62.746 11.5752L62.8225 11.6814C62.6696 11.823 62.4403 11.8938 62.211 11.8938C61.7525 11.8938 61.3321 11.5752 61.3321 11.0796C61.2939 10.5841 61.7143 10.3009 62.1346 10.3009ZM62.6696 10.9734C62.6696 10.5841 62.4021 10.4071 62.1346 10.4071C61.8289 10.4071 61.5232 10.5841 61.485 10.9734H62.6696Z" fill="white"/>
<path d="M64.0452 11.7876H64.5801V10.0177C64.5801 9.9469 64.5801 9.9115 64.5801 9.9115C64.5801 9.9115 64.5419 9.9469 64.4655 10.0531L64.198 10.3009L64.0834 10.1947L64.5801 9.73451H64.733V11.7876H65.268V11.9292H64.0452V11.7876Z" fill="white"/>
<path d="M65.7648 11.7168C65.8412 11.7522 65.9559 11.7876 66.1087 11.7876C66.6437 11.7876 66.9494 11.2566 66.9494 10.7965C66.8348 10.9734 66.5673 11.0796 66.2998 11.0796C65.8794 11.0796 65.5737 10.7965 65.5737 10.3717C65.5737 9.9115 65.9176 9.62831 66.2998 9.62831C66.8348 9.62831 67.1405 10.0885 67.1405 10.6549C67.1405 11.1858 66.8348 11.8938 66.1087 11.8938C65.9559 11.8938 65.8412 11.8584 65.6884 11.823L65.7648 11.7168ZM66.9494 10.5487C66.9494 10.2301 66.6819 9.8053 66.2998 9.8053C65.9176 9.8053 65.7266 10.0531 65.7266 10.4071C65.7266 10.7611 65.9559 10.9734 66.2998 10.9734C66.6437 10.9734 66.9494 10.7257 66.9494 10.5487Z" fill="white"/>
<path d="M67.7136 11.7168C67.7901 11.7522 67.9047 11.7876 68.0576 11.7876C68.5926 11.7876 68.8983 11.2566 68.8983 10.7965C68.7836 10.9734 68.5161 11.0796 68.2486 11.0796C67.8283 11.0796 67.5226 10.7965 67.5226 10.3717C67.5226 9.9115 67.8665 9.62831 68.2486 9.62831C68.7836 9.62831 69.0893 10.0885 69.0893 10.6549C69.0893 11.1858 68.7836 11.8938 68.0576 11.8938C67.9047 11.8938 67.7901 11.8584 67.6372 11.823L67.7136 11.7168ZM68.8983 10.5487C68.8983 10.2301 68.6308 9.8053 68.2486 9.8053C67.8665 9.8053 67.6754 10.0531 67.6754 10.4071C67.6754 10.7611 67.9047 10.9734 68.2486 10.9734C68.6308 10.9734 68.8983 10.7257 68.8983 10.5487Z" fill="white"/>
<path d="M69.6244 11.5398C69.7008 11.6814 69.8919 11.823 70.1594 11.823C70.5415 11.823 70.809 11.5752 70.809 11.2566C70.809 10.938 70.5033 10.6903 70.1594 10.6903C70.0065 10.6903 69.8155 10.7257 69.7008 10.8319L69.5862 10.7965L69.739 9.76991H70.8472V9.9115H69.8919L69.8155 10.5487C69.8155 10.6195 69.7773 10.6903 69.7773 10.6903C69.8537 10.6549 70.0065 10.5841 70.1976 10.5841C70.6562 10.5841 71.0001 10.9027 71.0001 11.292C71.0001 11.6814 70.6562 12 70.1976 12C69.9301 12 69.6626 11.8938 69.548 11.6814L69.6244 11.5398Z" fill="white"/>
</svg>
