<?xml version="1.0" encoding="UTF-8"?> <svg xmlns="http://www.w3.org/2000/svg" width="164" height="19" viewBox="0 0 164 19" fill="none"><path d="M24.0184 14.54C24.0184 16.38 23.1184 16.64 22.2284 16.64C21.3484 16.64 20.4384 16.38 20.4384 14.54V0.540039H17.6484V14.1C17.6484 17.08 19.1384 18.53 22.2184 18.53C25.3084 18.53 26.8184 17.08 26.8184 14.1V0.540039H24.0284V14.54H24.0184Z" fill="#454545"></path><path d="M85.5684 13.2298L85.5784 13.4998C85.8084 15.9098 86.5684 16.5698 87.6084 16.5898C88.8384 16.6098 89.5584 15.6298 89.5584 14.3198C89.5584 12.4098 88.1184 11.2598 86.5984 10.0398C84.8484 8.63984 83.0384 7.19984 83.0384 4.47984C83.0384 1.88984 84.6884 0.339844 87.4484 0.339844C90.4284 0.339844 92.1584 1.83984 92.1284 5.31984L92.1384 5.52984H89.4784L89.4684 5.40984C89.3584 2.92984 88.5184 2.24984 87.6084 2.25984C86.3784 2.26984 85.8484 3.08984 85.8484 4.27984C85.8484 6.08984 87.2584 7.19984 88.7484 8.37984C90.4584 9.72984 92.3984 11.2698 92.3984 14.0898C92.3984 16.8798 90.5984 18.5398 87.5684 18.5398C84.5184 18.5398 82.9784 16.9598 82.8284 13.5898L82.8184 13.2298H85.5684Z" fill="#454545"></path><path d="M138.949 13.14L138.959 13.41C139.189 15.82 139.949 16.48 140.989 16.5C142.219 16.52 142.939 15.54 142.939 14.23C142.939 12.32 141.499 11.17 139.979 9.95C138.229 8.55 136.419 7.11 136.419 4.39C136.419 1.8 138.069 0.25 140.829 0.25C143.809 0.25 145.539 1.75 145.509 5.23L145.519 5.44H142.859L142.849 5.32C142.739 2.84 141.899 2.16 140.989 2.17C139.759 2.18 139.229 3 139.229 4.19C139.229 6 140.639 7.11 142.129 8.29C143.839 9.64 145.779 11.18 145.779 14C145.779 16.79 143.979 18.45 140.949 18.45C137.899 18.45 136.359 16.87 136.209 13.5L136.199 13.14H138.949Z" fill="#454545"></path><path d="M125.749 11.68L125.699 11.39L122.079 0.540039H118.689V18.36L121.159 18.34V4.96004L121.229 5.22004L125.679 18.36H128.239V0.540039H125.749V11.68Z" fill="#454545"></path><path d="M153.898 0.490234V18.2602L163.228 18.2702V16.2002H156.718V10.1002H161.428L161.418 8.06023H156.718V2.56024H162.858V0.490234H153.898Z" fill="#454545"></path><path d="M100.879 0.560059V18.3201L110.209 18.3401V16.2701H103.699V10.1701H108.409L108.399 8.12006H103.699V2.63006H109.839V0.560059H100.879Z" fill="#454545"></path><path d="M53.8184 0.560059V18.3201L63.1484 18.3401L63.1384 16.2701H56.6284V10.1701H61.3384V8.12006H56.6284V2.63006H62.7684V0.560059H53.8184Z" fill="#454545"></path><path d="M9.34914 4.1498C8.81914 1.7298 7.15914 0.549805 3.74914 0.549805H0.119141V18.3698H2.90914L2.92914 10.6598H3.74914C6.70914 10.6598 8.40914 9.7698 9.11914 7.9498C9.46914 7.0898 9.54914 5.0798 9.34914 4.1498ZM6.47914 7.3098C6.22914 8.3698 5.10914 8.7998 3.62914 8.7998H2.95914L2.93914 8.7298L2.94914 2.4198H3.61914C5.38914 2.4198 6.42914 2.8398 6.57914 4.6698C6.58914 4.8198 6.70914 6.3198 6.47914 7.3098Z" fill="#454545"></path><path d="M45.8083 18.34C45.5383 17.83 45.0183 17.47 45.0183 15.84L44.9883 13.38C44.9883 11.16 44.4583 10.01 41.8783 9.44004H41.8683C44.1983 8.97004 45.0483 7.37004 45.0483 5.21004C45.0483 2.02004 43.2483 0.540039 39.3683 0.540039H35.7383V18.36H38.5283V10.46H39.7983C41.8683 10.46 42.3883 11.29 42.3683 13.42L42.4183 16.3C42.4183 17.61 43.0383 18.12 43.2383 18.34H45.8083ZM38.5683 2.41004H39.2383C41.1683 2.41004 42.2183 2.90004 42.2183 5.17004C42.2183 7.76004 40.9583 8.45004 39.7683 8.45004H38.5283L38.5683 2.41004Z" fill="#454545"></path></svg> 