<?xml version="1.0" encoding="utf-8"?>
<!-- Generator: Adobe Illustrator 28.0.0, SVG Export Plug-In . SVG Version: 6.00 Build 0)  -->
<svg version="1.1" id="Слой_1" xmlns="http://www.w3.org/2000/svg" xmlns:xlink="http://www.w3.org/1999/xlink" x="0px" y="0px"
	 viewBox="0 0 1000 150.0934448" enable-background="new 0 0 1000 150.0934448" xml:space="preserve">
<path fill="#000001" d="M276.5978699,86.1178818c-6.2086792-5.1638718-14.6878662-8.117485-23.2273254-8.117485
	c-7.0124054,0-13.3215485,1.3864059-18.7666931,4.0989227v-42.094471h-16.7373352v107.3158112h16.2350159
	c3.5765228,0.6429749,7.856308,0.964447,13.4219971,0.964447c6.0278473,0,17.5410156-0.9845581,27.0449524-7.5950928
	c9.021698-6.2689514,13.5827637-15.6724167,13.5827637-27.9491348
	C288.1512451,101.5893555,284.1527405,92.3868408,276.5978699,86.1178818z M248.0258484,142.0362396
	c-7.0124054,0-10.7898407-1.3060303-12.8192291-2.0092926c-0.2210236-0.0803528-0.4219666-0.1406555-0.622879-0.200943V86.9818649
	c3.2550354-1.5069656,8.278244-3.2148666,14.1051788-3.2148666c16.3153534,0,25.1160431,14.9289551,25.1160431,28.9939346
	c0,24.2118607-14.0248108,29.2953568-25.7791138,29.2953568V142.0362396z M158.7132263,38.6787109l47.4994507,108.641922
	h-18.9073639l-0.1004639-0.2612152l-33.7961273-83.4656372l-37.1114578,83.7268219h-9.3029938l48.2629929-108.9031372h3.3354187
	l0.1004639,0.2411194L158.7132263,38.6787109z M89.1317444,38.4375916h4.6615524V147.340744H77.0760803V63.6741982
	l-72.2939911,85.253891H0V40.0249596h16.7172337v83.8272858l72.4145432-85.4146118L89.1317444,38.4375916z M916.4942017,24.5132618
	l-0.4219971-0.1205521l1.9489746-5.9675732l0.3817749,0.1205521c4.1591797,1.2256641,8.3184204,1.8485374,12.3571167,1.8485374
	c14.0046387,0,26.1810303-7.3740654,34.5395508-20.3942261l10.7496338,11.5131979h0.0201416
	c-10.6693115,10.1066904-25.0959473,15.6724138-40.5875854,15.6724138c-6.2488403,0-12.6383057-0.904171-19.0078125-2.6522541
	L916.4942017,24.5132618z M999.9597778,93.3512878c0,15.9939041-5.7867432,30.3401794-16.2952881,40.4066772
	c-10.7697144,10.327713-25.6786499,15.7929688-43.0789795,15.7929688c-13.3817749,0-26.0603638-3.9180908-36.7096558-11.3524323
	l-0.1205444-0.080368l-3.4760132-10.7094803h3.817688l0.1205444,0.1004715
	c11.2720337,10.2473602,26.6229858,14.8285217,36.8502808,14.8285217c23.930542,0,41.4917603-20.2736588,41.8533936-48.2830658
	H912.053772v-7.5147324h70.5458984c-2.5115967-25.4777107-19.1485596-42.5566139-41.5117188-42.5566139
	c-10.3076782,0-21.2984009,3.2952232-30.1593628,9.0618706l-0.3014526,0.2009239l-5.4852905-6.5301704l0.4419556-0.2411194
	c10.0263062-5.706356,22.4638062-8.7202797,35.9862061-8.7202797C974.8839722,37.7544594,1000,61.6448326,1000,93.3111191
	L999.9597778,93.3512878z M384.5164185,14.2056456c-15.5719299,0-27.6075134,4.6012602-39.0403442,14.9289732l-0.1004333,0.1004696
	l-2.0092773,10.4080849h4.4404907c11.5935364-14.1252556,21.6399536-19.2087383,37.6941528-19.2087383
	c24.6740112,0,39.0002136,15.8532429,40.4267578,44.6663666c-9.6646423-10.9505844-23.3478394-17.1994553-37.6941528-17.1994553
	c-30.9831848,0-55.2753906,22.3231354-55.2753906,50.8348694s23.8300476,50.8348618,53.1254578,50.8348618
	c12.1561279,0,27.9892883-2.0695648,42.5565796-18.3045654c5.8068542-6.4498138,12.71875-17.5611496,12.71875-33.7559662V70.0235672
	c0-8.4791756-1.9691162-19.1484604-4.6816101-25.3571548c-8.5997314-19.6507835-27.1052246-30.4607201-52.1409302-30.4607201
	L384.5164185,14.2056456z M413.5907593,132.6327667c-6.8516541,6.9521332-15.712616,10.6291046-25.6384888,10.6291046h-0.2410889
	c-22.162384-0.1205597-37.9754333-18.485405-38.4576416-44.6663589
	c-0.2612305-13.8640366,3.7573547-25.4375305,11.5935364-33.4545441
	c6.8516541-7.0324936,16.1546631-10.7697601,26.9043274-10.8300362h0.2813416
	c18.6260071,0,37.6539307,13.7234077,38.0959778,44.3649712c0.2009277,13.2813644-4.3802185,25.6585541-12.5580139,33.9568634
	H413.5907593z M762.0406494,38.2567635c-32.3695068,0-58.6911621,25.0758591-58.6911621,55.9183311
	s26.3216553,55.9183502,58.6911621,55.9183502s58.6911011-25.0959549,58.6911011-55.9183502
	S794.4101562,38.2567482,762.0406494,38.2567635z M795.0531616,128.7950287
	c-6.5904541,8.1376038-15.973877,13.0603485-27.1253662,14.205658c-1.5873413,0.1607361-3.1746216,0.2411041-4.7218018,0.2411041
	c-22.6848145,0-39.8842773-18.0634689-42.7776489-44.9275742c-1.5672607-14.5271072,2.2503662-28.6523666,10.4483032-38.7992477
	c6.831543-8.4389839,15.9938354-13.4621925,26.5024414-14.5271263c1.3462524-0.1406479,2.7125244-0.2009239,4.0587158-0.2009239
	c22.3834229,0,40.6678467,18.8671646,43.4608154,44.8873749c1.647644,15.3710022-1.8284912,29.2551575-9.8254395,39.140831
	L795.0531616,128.7950287z M817.175354,40.024929h79.6480103v7.5147133h-31.465332v99.8011017h-16.7172241V47.5396576H817.175415
	v-7.5147133L817.175354,40.024929z M511.8045044,37.7946243c-32.5503845,0-59.0527954,25.07584-59.0527954,55.8781509
	c0,33.9367905,24.3726196,55.8781586,62.0667725,55.8781586c19.1886597,0,36.7698975-7.233429,49.4886475-20.3339386
	l0.0803833-0.1004639l2.2906494-12.9799881h-3.2751465l-0.1205444,0.1808319
	c-10.508606,16.3555679-29.0743408,26.502449-48.4639282,26.502449c-25.7388916,0-43.7420349-20.0325546-43.9229431-48.7451935
	h99.3389587v-0.4219666c0-30.8023109-26.2211304-55.8781548-58.4500427-55.8781548L511.8045044,37.7946243z M471.217041,86.5800095
	C473.52771,60.620079,489.0996399,44.505619,511.9451904,44.505619c21.1175537,0,40.1253662,18.4452362,43.4406738,42.0743904
	h-84.1889343H471.217041z M682.1716309,86.1178818c-6.2086792-5.1638718-14.6878662-8.117485-23.2272949-8.117485
	c-7.0123901,0-13.3215332,1.3864059-18.7667236,4.0989227V47.5195618c43.2397461,0,47.3588257,0,47.579834,0h0.421936v-7.5147133
	h-64.7189941v107.3158112h16.2349854c3.5765381,0.6429749,7.8563232,0.964447,13.4219971,0.964447
	c6.027832,0,17.5209351-0.9845581,27.0449219-7.5950928c9.0216675-6.2689514,13.5827637-15.6724167,13.5827637-27.9491348
	c0-11.1515274-3.9984741-20.3540421-11.5533447-26.6230011H682.1716309z M654.2827759,142.1969757
	c-6.831543,0-10.930481-1.3462067-13.3818359-2.1499481c-0.2612305-0.0803528-0.5023193-0.1607361-0.7233276-0.2411041V86.9617767
	c3.2550659-1.506958,8.2782593-3.214859,14.1051636-3.214859c18.2844849,0,25.1160278,17.7821655,25.1160278,28.9939651
	C679.3988037,126.9866943,672.8083496,142.1969757,654.2827759,142.1969757z"/>
</svg>
