<svg data-v-1828e396="" xmlns="http://www.w3.org/2000/svg" viewBox="0 0 512.3 184.31" class="logo-svg" animated="true"><g data-v-1828e396="" fill="currentColor"><path data-v-1828e396="" d="M330.27,77.28h.32c-.8,12-.8,16.7-.8,23.6l.16,83.81h29.54l-.64-148.83H320.16L275.52,149.21,230.89,35.86H190.76l-.65,148.83h27.78l.16-84.61a194.33,194.33,0,0,0-1-22.8h.32a106.31,106.31,0,0,0,6.42,20.55l34.52,86.37h31l34.36-84.92A131.23,131.23,0,0,0,330.27,77.28Zm52.18-66v6.26l130-10.92.16-6.26Zm-.32,173.39h130V158.52H411.35V122.88h98.09V96.39H411.35V62H512.17V35.86h-130Zm-246.44,0h29.22V35.86H135.69ZM30.37,35.86H.35V184.69H120V157.87H30.37Z" transform="translate(-0.35 -0.38)"></path></g></svg>