<?xml version="1.0" encoding="utf-8"?>
<!-- Generator: Adobe Illustrator 28.0.0, SVG Export Plug-In . SVG Version: 6.00 Build 0)  -->
<svg version="1.1" id="Слой_1" xmlns="http://www.w3.org/2000/svg" xmlns:xlink="http://www.w3.org/1999/xlink" x="0px" y="0px"
	 viewBox="0 0 1000 162.9429779" enable-background="new 0 0 1000 162.9429779" xml:space="preserve">
<path fill-rule="evenodd" clip-rule="evenodd" fill="#000001" d="M0,3.7617595V160.264267h31.890686v-32.1111603h34.6888885
	c10.0572205-0.3147736,19.8469315-3.3151779,28.353241-8.6902237c10.5467758-6.1492767,18.9924469-15.3399734,24.2312851-26.3658295
	c5.0072098-10.1020355,7.0476837-21.4141312,5.8926849-32.6288033c-0.651619-7.8138885-2.7754669-15.434948-6.2605209-22.4605598
	c-5.4724579-11.1315212-14.2070465-20.3284626-25.0407333-26.3658314
	C84.7980118,6.4473872,74.6493835,3.6556451,64.294548,3.5386074L0,3.7617595L0,3.7617595z M31.890686,96.4095612v-60.687561
	H55.898819c4.7153931-0.1446838,9.4339066,0.2256012,14.0686035,1.1052818
	c5.4584274,1.0774155,10.4716568,3.7547951,14.4045715,7.6879349c3.9358139,3.9338074,6.611412,8.9492683,7.6881561,14.4079132
	c0.9155731,3.8439674,1.0495529,7.8326149,0.3899078,11.729641c-0.657196,3.8972473-2.0935287,7.621727-4.2200546,10.9531784
	c-2.165535,3.4188385-4.9826889,6.3775558-8.2947464,8.7015915c-3.3098297,2.3242569-7.0483475,3.9748306-11.0011063,4.8489304
	c-2.6691284,0.5067215-5.3832932,0.7292023-8.0999107,0.6654434L31.890686,96.4095612z"/>
<path fill-rule="evenodd" clip-rule="evenodd" fill="#000001" d="M967.888855,3.7586384V128.149765h-36.0886841V3.7586384
	h-32.4783325V128.149765h-36.0861816V3.7586384h-32.2585449v156.5025177H1000V19.2994766
	c-0.0441284-2.1826992-0.5370483-4.3312912-1.4445801-6.3135777c-0.9048462-1.984292-2.2154541-3.7605915-3.8356934-5.2158732
	c-1.6203003-1.4590712-3.5292358-2.5668063-5.5975342-3.2569952c-2.0714722-0.6906343-4.2561646-0.946557-6.4306641-0.7543921
	H967.888855z"/>
<polygon fill-rule="evenodd" clip-rule="evenodd" fill="#000001" points="558.5422974,36.0171585 638.6697388,36.0171585 
	638.6697388,3.5386074 526.2838135,3.5386074 526.2838135,160.264267 558.5422974,160.264267 "/>
<path fill-rule="evenodd" clip-rule="evenodd" fill="#000001" d="M441.8888245,81.9011078
	c1.9874268-2.5023804,3.9779663-5.2272415,4.6402893-6.2598495c6.3993835-9.8258286,8.8462524-21.7059479,6.8530579-33.2639313
	c-1.9954529-11.5539742-8.2838135-21.9284286-17.6060486-29.04076c-11.684845-7.0813446-25.2523193-10.4217148-38.8859863-9.5748072
	h-86.9055786V160.264267h86.9055786c9.5723572,0,30.0486145-3.2404938,38.7388306-9.8681793
	c9.3222351-7.1147766,15.6097412-17.4890137,17.6060791-29.0432053c1.992981-11.5548706-0.4536743-23.437439-6.853302-33.2639313
	c-0.6627808-1.0294876-2.8726501-3.902153-4.6402588-6.1878433H441.8888245L441.8888245,81.9011078z M341.8734436,35.5773163
	h64.1492004c4.2510376,0.0227394,8.325531,1.7149963,11.3406372,4.7127228
	c1.9316711,2.0513954,3.2371521,4.6126289,3.760376,7.3791809c0.520752,2.7696686,0.2396545,5.6285133-0.8157043,8.2396851
	c-1.0546875,2.6136208-2.8361206,4.8683243-5.1325073,6.4992752s-5.0136719,2.5694809-7.8276978,2.7027893h-65.4743042V35.5773163
	L341.8734436,35.5773163z M417.5104065,123.4401627c-1.4724426,1.5145798-3.2342529,2.7141647-5.1855469,3.524292
	c-1.9512939,0.8101196-4.0443726,1.216301-6.1575317,1.188652h-64.146759V98.6945801h65.4751892
	c2.7975464,0.1446838,5.4970093,1.0856705,7.7826843,2.7141647c2.2825623,1.6251526,4.0526428,3.8691559,5.1046448,6.468956
	c1.0522156,2.5966797,1.3391418,5.4414825,0.8323975,8.1997833
	C420.7061157,118.8333359,419.4200134,121.3889923,417.5104065,123.4401627z"/>
<path fill-rule="evenodd" clip-rule="evenodd" fill="#000001" d="M143.8318787,19.2994766
	c0.0385742-2.1882725,0.5314636-4.3451128,1.4445801-6.3331947c0.9100037-1.9898663,2.2237244-3.7688408,3.8546753-5.2272434
	c1.6316071-1.4584026,3.5463562-2.5636854,5.6260529-3.2480779c2.0790405-0.6875134,4.2755585-0.9351876,6.4551392-0.7323222
	h14.7276001v102.2232742c0,0,74.5323486-96.4779434,79.7629395-102.2232742h31.0781097v156.5025177h-31.8882446V57.5953636
	l-78.9528046,102.6657867h-31.9633636L143.8318787,19.2994766z"/>
<path fill-rule="evenodd" clip-rule="evenodd" fill="#000001" d="M787.553894,25.3980904
	c-14.869873-15.6823263-35.3571167-24.818285-56.960022-25.3945217h-2.2824707
	c-21.4359741-0.2001518-42.0931396,8.0248508-57.5197754,22.9060268
	c-11.4485474,11.2369423-19.3317261,25.5999794-22.6690063,41.2912865
	c-3.3377075,15.6907654-1.979248,32.0189896,3.9052124,46.944519c5.8814087,14.9228134,16.0308838,27.7855988,29.1774902,36.97966
	c13.1464844,9.1937866,28.7095337,14.3098297,44.7483521,14.7162628l0.295105,0.0726624
	c21.6004639,0.5762329,42.5462036-7.4543304,58.2344971-22.3215027
	c15.6798706-14.8666077,24.8181763-35.3569336,25.3945312-56.9598618
	C810.4509277,62.0295525,802.423645,41.0806885,787.553894,25.3980904z M728.2102661,128.8142853
	c-26.2593384,0-47.5465698-21.2873993-47.5465698-47.5466156c0-26.2593498,21.2872314-47.5467453,47.5465698-47.5467453
	c26.2592163,0,47.5466309,21.2873955,47.5466309,47.5467453C775.756897,107.526886,754.4694824,128.8142853,728.2102661,128.8142853
	z"/>
</svg>
