<?xml version="1.0" encoding="utf-8"?>
<!-- Generator: Adobe Illustrator 28.0.0, SVG Export Plug-In . SVG Version: 6.00 Build 0)  -->
<svg version="1.1" id="Слой_1" xmlns="http://www.w3.org/2000/svg" xmlns:xlink="http://www.w3.org/1999/xlink" x="0px" y="0px"
	 viewBox="0 0 1000 102.4337997" style="enable-background:new 0 0 1000 102.4337997;" xml:space="preserve">
<style type="text/css">
	.st0{fill:#005AAB;}
	.st1{fill-rule:evenodd;clip-rule:evenodd;fill:#005AAB;}
	.st2{fill-rule:evenodd;clip-rule:evenodd;fill:#EA1C25;}
</style>
<g>
	<polygon class="st0" points="236.1802063,81.5453796 212.4000092,81.5453796 230.2846222,19.2138844 296.2473755,19.2138844 
		278.2888794,81.5453796 254.496109,81.5453796 266.9520264,37.4307594 248.3786011,37.4307594 	"/>
	<path class="st1" d="M323.9666138,84.696579c-19.3367615-0.5050049-30.1933289-12.5551605-25.011261-32.8397484
		c3.9754639-15.6077423,14.6720581-26.3654728,30.9686279-31.338377c22.6357727-6.8925905,46.392334,3.3482113,38.0096741,31.338377
		C361.9518127,71.8338623,345.3223572,84.5489731,323.9666138,84.696579 M345.7781372,46.3791351
		c0.6276855-4.3820686-0.2464294-10.1174812-5.0101624-11.2009621c-7.9266663-1.8091431-15.1023254,4.8742905-18.0320129,13.8107376
		c-3.1264954,9.5023651-2.0432129,17.3798256,3.7910156,18.7708626
		C338.8478699,70.7384491,344.8177795,53.3341331,345.7781372,46.3791351"/>
	<path class="st1" d="M419.2984619,37.3449249c-8.4442139-2.5724983-15.2505493,5.6989899-17.4663086,12.9981804
		c-2.2651367,7.3848114-1.0587769,13.3302307,4.0004272,14.4501381c9.4653015,2.0802765,15.5827942-7.5202751,16.9862061-14.4752693
		C423.6066284,46.4534683,425.0219421,39.1050797,419.2984619,37.3449249 M364.4133301,102.4337997l22.2786255-81.9892578
		h21.8236389l-2.9665222,9.6998062c4.6408386-5.8719387,11.7551575-10.9549618,22.0328064-11.6810455
		c23.6328125,0.2457905,23.1408081,20.7401772,17.1706543,36.6921082
		c-3.4706726,9.0227089-8.6408081,18.6605339-22.0572815,25.3318291
		c-12.1115112,6.0184784-25.1838074,2.7816544-27.3499146-4.960762l-6.9788513,26.9073181H364.4133301z"/>
	<polygon class="st1" points="477.4691772,38.4030647 455.9658508,38.4030647 460.9508972,20.506525 525.3379517,20.506525 
		520.5133057,38.4030647 500.5605774,38.4030647 488.4122314,82.7888184 465.1240234,82.7762527 	"/>
	<path class="st1" d="M617.3467407,64.3994217c2.3999634-11.7673073,16.4194336-20.7521019,35.4859619-20.0387993
		c3.00354,0.1109695,15.7677002-0.9107475,15.7677002-6.8808746c0-3.335434-2.5114136-4.2706757-5.1697388-4.5663071
		c-5.8589478-0.6276817-10.1794434,2.0432205-11.6442261,6.2655487h-23.953125
		c5.6255493-17.3926029,22.2664795-20.6419888,39.4991455-20.8266506
		c16.2109375-0.159956,30.4150391,3.2248898,24.0510864,21.7246189l-9.305542,33.7017212
		c-0.7629395,2.7697296-0.5286255,5.8344498,1.1452637,5.7971802v1.748436l-25.7133179,0.0119324l-0.0125732-6.4250793
		c-4.7756958,3.9143448-13.453125,8.22229-21.4907227,8.0987549
		C623.3652344,83.0718842,614.3186646,79.2559433,617.3467407,64.3994217 M648.1552124,69.8645477
		c7.4836426,0,15.6694946-7.2374191,15.0164795-15.6935768c-2.4368286,2.1661148-6.7324219,2.806366-10.1298828,3.1384201
		c-5.5142822,0.5294952-11.7180786,2.757164-11.3117065,7.6438103
		C641.9520264,67.6739426,643.6131592,69.8645477,648.1552124,69.8645477"/>
	<polygon class="st1" points="522.8274536,82.8007507 555.1626587,82.7888184 542.7740479,18.7953587 	"/>
	<polygon class="st1" points="597.7136841,82.7396164 617.2625732,19.0641518 567.6312866,82.7396164 	"/>
	<polygon class="st2" points="621.1008911,3.0653613 573.6625977,33.9349442 546.8502197,2.9465125 562.2645874,77.200798 	"/>
	<path class="st1" d="M186.8347473,19.5951385c20.5184479,0.824913,25.6023254,11.3979797,23.7314148,24.9499359h-24.4579315
		c1.4281006-4.8365898-1.341629-8.9603043-4.5292358-8.9847984c-4.7637482-0.7512169-10.3398438,1.8340645-14.9430084,12.34515
		c-4.1850433,11.1521912-3.6065674,19.5591431,3.6187134,20.1252747c5.4161377,0.3936081,9.3914032-2.4743118,12.7515411-9.662323
		h23.6702881c-5.3669434,18.0564957-23.2144928,26.5746307-42.182373,25.9833679
		c-19.1523285,0-29.6025085-13.0963669-23.6941376-31.128582C146.6956024,35.1911659,160.4694824,18.5370007,186.8347473,19.5951385
		"/>
	<path class="st1" d="M746.4655151,19.5951385c20.5188599,0.824913,25.6018677,11.3979797,23.7316284,24.9499359h-24.4579468
		c1.4282837-4.8365898-1.3290405-8.9603043-4.5292358-8.9847984c-4.7637939-0.7512169-10.3398438,1.8340645-14.9429932,12.34515
		c-4.1850586,11.1521912-3.6065674,19.5591431,3.6188965,20.1252747c5.4159546,0.3936081,9.3914185-2.4743118,12.7515259-9.662323
		h23.670105c-5.3669434,18.0564957-23.2023315,26.5746307-42.182373,25.9833679
		c-19.1646729,0-29.6029053-13.0963669-23.6947632-31.128582C706.338501,35.1911659,720.0997925,18.5370007,746.4655151,19.5951385"
		/>
	<polygon class="st1" points="799.6762695,38.4030647 778.1729736,38.4030647 783.15802,20.506525 847.5325317,20.506525 
		842.7078857,38.4030647 822.7553711,38.4030647 810.6187134,82.7888184 787.3187866,82.7762527 	"/>
	<path class="st1" d="M971.0883789,37.3449249c-8.4436035-2.5724983-15.2384033,5.6989899-17.4664917,12.9981804
		c-2.2521362,7.3848114-1.0579224,13.3302307,4.0127563,14.4501381c9.4656982,2.0802765,15.5830078-7.5202751,16.9866333-14.4752693
		C975.3963623,46.4534683,976.8244629,39.1050797,971.0883789,37.3449249 M916.2160645,102.4337997l22.2783813-81.9892578
		h21.8236694l-2.9663696,9.6998062c4.6281128-5.8719387,11.7426147-10.9549618,22.0079346-11.6810455
		c23.6329956,0.2457905,23.15271,20.7401772,17.1953735,36.6921082c-3.4711304,9.0227089-8.652771,18.6605339-22.057312,25.3318291
		c-12.1113281,6.0184784-25.1838379,2.7816544-27.3497314-4.960762l-6.9916382,26.9073181H916.2160645z"/>
	<path class="st1" d="M915.2682495,56.2386856h-45.5301514c-0.4675293,5.8591614,1.3908081,11.2505951,9.3300171,11.7300339
		c2.9665527,0.1846619,7.5941772-1.3045654,9.329834-5.2678986h23.6206665
		c-6.1916504,12.5917969-20.8634644,20.125061-37.3201904,20.5065231
		c-16.5184937,0.4430237-32.4708862-8.9238815-27.4242554-29.9841805
		c5.0593872-21.0605125,22.0946045-35.8067093,46.6134033-34.5877609
		C918.2837524,20.0143032,920.277771,38.9080658,915.2682495,56.2386856 M873.6276855,44.5205803l21.8481445-0.0609169
		c1.1569824-6.4378548-1.6246338-10.4629517-6.6103516-11.0167274
		C884.5328369,32.8276062,876.1384277,33.4307976,873.6276855,44.5205803"/>
	<polygon class="st2" points="0,14.2045584 82.7886047,32.6795807 124.0106049,15.9892073 85.6320343,60.0420609 	"/>
	<polygon class="st1" points="8.172451,101.6086731 53.65345,50.4412956 153.4899902,102.3228302 59.3404694,81.7055511 	"/>
	<path class="st1" d="M79.9449692,0c7.4593582,0,13.859726,5.6864238,13.859726,13.1455688
		c0,7.4593582-6.4003677,13.1455688-13.859726,13.1455688c-7.4591446,0-13.8595123-5.6862106-13.8595123-13.1455688
		C66.0854568,5.6864238,72.4858246,0,79.9449692,0"/>
</g>
</svg>
